<?xml version="1.0" standalone="no"?>
<!DOCTYPE svg PUBLIC "-//W3C//DTD SVG 20010904//EN"
 "http://www.w3.org/TR/2001/REC-SVG-20010904/DTD/svg10.dtd">
<svg version="1.0" xmlns="http://www.w3.org/2000/svg"
 width="3026.000000pt" height="3026.000000pt" viewBox="0 0 3026.000000 3026.000000"
 preserveAspectRatio="xMidYMid meet">
<metadata>
Created by potrace 1.14, written by Peter Selinger 2001-2017
</metadata>
<g transform="translate(0.000000,3026.000000) scale(0.100000,-0.100000)"
fill="#000000" stroke="none">
<path d="M15460 25873 c-186 -20 -320 -106 -408 -263 -124 -222 -47 -515 173
-655 143 -92 346 -98 503 -15 93 49 182 150 222 250 27 69 34 110 32 200 -3
231 -157 414 -397 472 -27 6 -103 13 -125 11z m118 -53 c84 -18 185 -74 242
-136 46 -52 95 -135 105 -182 3 -12 7 -32 10 -44 7 -31 7 -137 1 -167 -31
-141 -120 -256 -243 -316 -32 -16 -66 -32 -76 -37 -10 -5 -53 -11 -96 -13
-133 -8 -244 32 -342 123 -128 118 -175 299 -122 463 73 224 294 355 521 309z"/>
<path d="M15424 25550 c-12 -5 -25 -13 -29 -19 -13 -22 6 -29 48 -16 50 15 73
7 87 -31 15 -38 -11 -86 -85 -163 -36 -37 -65 -73 -65 -79 0 -8 31 -12 105
-12 95 0 105 2 105 18 0 16 -8 19 -57 20 -32 0 -64 1 -72 1 -8 1 9 25 37 55
28 30 59 70 68 89 20 42 13 96 -16 122 -22 20 -92 28 -126 15z"/>
<path d="M8232 22177 c-72 -41 -71 -159 2 -187 12 -4 121 -11 242 -14 120 -4
230 -8 244 -11 14 -2 66 -7 115 -10 50 -3 105 -7 123 -10 19 -2 57 -6 85 -9
84 -8 340 -47 437 -66 30 -6 67 -13 83 -15 385 -69 967 -251 1342 -420 28 -12
75 -33 105 -46 178 -75 568 -285 777 -419 196 -124 525 -357 553 -390 3 -3 23
-19 46 -35 154 -112 490 -423 714 -661 152 -162 394 -455 495 -599 22 -31 45
-62 51 -68 17 -19 186 -274 246 -372 180 -293 328 -582 462 -898 42 -98 76
-181 76 -184 0 -6 75 -212 91 -248 17 -41 112 -363 125 -425 3 -14 11 -43 19
-65 7 -22 15 -53 18 -70 3 -16 13 -61 22 -100 9 -38 19 -81 21 -95 3 -14 11
-56 19 -95 44 -222 85 -512 100 -715 13 -174 16 -237 20 -349 l4 -124 -43 -66
c-24 -36 -55 -95 -68 -131 -23 -64 -23 -69 -26 -575 -3 -563 -2 -586 55 -702
96 -198 302 -319 523 -309 140 7 276 70 373 175 68 74 103 136 129 230 19 69
20 103 20 575 0 437 -2 509 -17 565 -20 79 -45 130 -98 200 -37 50 -40 58 -38
115 6 183 19 403 25 444 3 15 7 61 11 102 3 41 8 82 10 90 2 8 6 40 10 71 3
31 7 65 9 75 2 11 7 39 10 64 3 25 8 55 10 66 2 12 7 39 10 60 6 38 10 60 22
114 3 14 6 34 8 45 2 11 6 34 10 50 8 39 16 74 22 105 3 14 21 86 40 160 19
74 37 144 39 155 24 103 166 530 214 640 5 11 34 83 66 160 53 128 223 481
297 615 237 432 586 918 913 1270 107 115 368 374 455 450 46 41 91 81 98 88
50 46 238 197 352 281 74 56 140 105 147 111 31 25 292 195 403 262 207 125
482 271 655 348 28 12 75 33 105 47 178 81 549 215 815 296 141 43 508 128
655 152 19 3 42 8 50 10 8 2 35 6 60 9 25 3 56 8 70 11 22 4 75 11 240 31 25
3 56 7 70 9 14 2 65 7 115 11 49 3 105 8 125 9 19 2 134 6 255 10 236 7 262
13 284 62 18 40 13 77 -18 113 l-29 35 -153 -1 c-138 -1 -364 -10 -444 -18
-16 -2 -66 -6 -110 -10 -44 -4 -91 -9 -105 -11 -14 -2 -50 -7 -80 -10 -58 -7
-80 -10 -145 -19 -22 -4 -56 -9 -75 -11 -19 -3 -46 -7 -60 -10 -14 -3 -52 -10
-85 -15 -33 -6 -114 -21 -180 -35 -66 -14 -131 -28 -145 -31 -14 -2 -101 -25
-195 -50 -93 -25 -177 -47 -185 -49 -59 -14 -501 -164 -545 -185 -11 -5 -60
-25 -110 -45 -49 -20 -110 -45 -135 -57 -25 -11 -84 -38 -131 -58 -229 -101
-637 -324 -817 -447 -35 -24 -65 -43 -68 -43 -3 0 -55 -35 -116 -77 -61 -43
-129 -91 -152 -107 -70 -49 -326 -251 -426 -336 -197 -168 -428 -392 -590
-570 -47 -52 -92 -101 -100 -110 -52 -55 -264 -318 -355 -440 -108 -146 -313
-449 -361 -535 -32 -57 -55 -98 -78 -134 -15 -22 -26 -43 -26 -45 0 -2 -16
-33 -36 -68 -140 -245 -284 -564 -439 -973 -29 -76 -116 -352 -149 -470 -34
-125 -109 -441 -120 -508 -5 -28 -22 -125 -31 -174 -3 -16 -8 -44 -11 -63 -3
-19 -9 -60 -14 -90 -5 -30 -11 -80 -15 -111 -3 -31 -7 -65 -9 -75 -2 -11 -7
-55 -11 -99 -4 -44 -8 -93 -10 -110 -2 -16 -7 -79 -11 -140 -10 -175 -12 -199
-13 -212 -1 -8 -14 -7 -48 4 -64 20 -223 19 -288 -1 -27 -9 -53 -16 -56 -16
-3 0 -7 30 -8 68 -1 37 -4 83 -6 102 -2 19 -6 73 -9 120 -12 169 -20 249 -37
369 -6 41 -12 86 -14 100 -23 164 -63 379 -105 556 -12 50 -23 98 -25 107 -19
93 -135 480 -184 613 -107 295 -169 443 -316 750 -176 366 -534 930 -772 1215
-11 14 -69 84 -129 155 -135 163 -168 199 -384 416 -463 465 -939 825 -1520
1149 -132 73 -482 250 -495 250 -3 0 -35 14 -72 31 -289 133 -868 325 -1193
394 -8 2 -47 10 -85 19 -86 18 -119 25 -165 32 -19 3 -42 7 -51 10 -9 2 -34 7
-55 10 -22 2 -46 6 -54 9 -23 7 -287 43 -365 50 -38 4 -77 8 -85 10 -8 2 -62
7 -120 10 -58 4 -125 8 -150 11 -25 2 -130 6 -235 9 -143 4 -196 2 -213 -8z"/>
<path d="M306 19973 c-6 -7 6 -403 19 -583 6 -86 16 -202 20 -235 2 -16 7 -61
11 -100 4 -38 8 -72 9 -75 0 -3 4 -32 8 -65 12 -89 17 -129 21 -150 4 -21 15
-89 22 -140 4 -29 9 -54 20 -105 3 -14 9 -52 15 -84 5 -33 12 -62 14 -65 1 -3
6 -24 9 -46 4 -22 11 -58 17 -80 6 -22 13 -49 15 -60 52 -272 263 -934 379
-1190 7 -16 23 -53 34 -82 69 -175 269 -585 380 -776 28 -49 51 -91 51 -93 0
-2 15 -28 33 -57 18 -28 38 -61 44 -72 40 -68 189 -297 284 -434 24 -35 51
-73 59 -85 24 -34 203 -270 209 -276 3 -3 42 -50 85 -105 44 -55 87 -107 96
-115 8 -8 28 -31 44 -50 98 -120 478 -512 646 -666 131 -119 428 -364 585
-482 116 -86 164 -121 182 -130 12 -7 27 -18 35 -24 17 -17 283 -193 373 -247
39 -23 77 -46 85 -51 22 -14 177 -103 235 -135 185 -103 584 -295 736 -356 30
-11 68 -27 84 -34 96 -44 432 -163 663 -235 123 -38 557 -151 627 -163 17 -3
55 -11 85 -17 63 -13 79 -16 158 -30 31 -6 68 -12 82 -15 37 -8 332 -50 420
-60 19 -2 58 -6 85 -10 89 -10 222 -20 425 -32 69 -4 1599 -7 3400 -7 l3275
-1 -1 1810 c0 1610 -3 1960 -19 2070 -3 17 -7 50 -10 75 -12 111 -15 137 -20
160 -3 14 -7 39 -9 55 -10 61 -16 92 -36 190 -11 55 -25 118 -31 140 -6 22
-13 47 -14 56 -10 53 -102 337 -149 459 -66 176 -189 435 -276 585 -29 50 -61
106 -72 125 -21 37 -198 302 -208 310 -3 3 -25 32 -50 65 -50 66 -51 68 -177
215 -285 332 -652 642 -1028 868 -66 40 -127 77 -135 82 -57 36 -348 176 -455
220 -71 29 -143 58 -160 65 -58 24 -353 117 -415 131 -19 4 -39 9 -45 10 -83
24 -338 73 -455 89 -25 3 -56 8 -70 10 -14 2 -54 7 -90 10 -36 4 -83 9 -105
12 -47 5 -10043 12 -10049 6z"/>
<path d="M20357 19975 c-1 -2 -55 -6 -119 -9 -65 -4 -128 -9 -140 -11 -48 -7
-122 -17 -157 -20 -35 -4 -80 -11 -131 -20 -14 -3 -38 -7 -55 -10 -16 -3 -39
-7 -50 -9 -11 -3 -53 -12 -94 -20 -408 -88 -863 -263 -1221 -470 -150 -87
-304 -185 -308 -197 -2 -5 -8 -9 -13 -9 -9 0 -196 -134 -209 -149 -3 -3 -21
-18 -40 -32 -19 -15 -45 -35 -57 -45 -11 -11 -38 -33 -60 -50 -124 -102 -339
-319 -484 -489 -126 -147 -296 -377 -364 -490 -13 -22 -34 -58 -48 -80 -204
-336 -394 -783 -483 -1135 -2 -8 -10 -42 -19 -75 -16 -63 -61 -279 -69 -330
-6 -37 -16 -105 -20 -142 -2 -15 -7 -48 -10 -73 -8 -65 -15 -141 -22 -250 -8
-116 -9 -3684 -1 -3696 6 -10 6537 -10 6687 0 236 16 312 22 400 31 114 13
137 16 173 20 20 3 56 7 80 10 23 3 53 8 67 10 14 2 43 7 65 10 23 3 52 7 65
10 13 3 42 7 65 10 62 9 344 65 405 81 30 8 71 17 90 20 19 3 38 8 43 11 4 2
19 7 34 9 14 3 83 21 152 40 69 19 151 42 181 50 56 15 315 101 450 149 390
139 859 361 1291 612 180 105 648 416 679 453 3 3 30 23 60 45 51 36 299 233
310 246 3 3 41 37 85 75 127 110 132 114 238 214 136 128 387 386 467 478 14
16 50 57 80 92 30 34 63 72 73 84 10 12 31 36 45 55 15 19 32 39 38 45 23 24
224 287 295 386 82 114 259 377 259 384 0 3 18 31 39 64 22 32 48 74 59 93 10
19 55 97 99 174 43 77 89 160 102 185 12 25 26 52 32 60 22 36 191 396 239
510 29 69 58 139 66 156 54 124 165 447 264 769 18 59 105 406 114 455 2 14 9
48 16 75 13 56 58 293 65 340 30 204 49 349 60 455 3 30 8 75 10 100 14 136
25 329 30 561 l4 186 -4950 0 c-2722 0 -4950 -1 -4952 -2z"/>
<path d="M15230 13519 c-214 -25 -375 -146 -461 -346 l-34 -78 0 -2090 c0
-2032 1 -2092 19 -2145 34 -99 77 -164 154 -237 192 -182 489 -197 709 -35 97
72 190 225 208 342 4 25 7 959 7 2077 0 1599 -3 2044 -12 2085 -65 270 -325
458 -590 427z"/>
<path d="M10437 11895 c-1 -2 -42 -5 -92 -9 -91 -6 -159 -12 -224 -22 -20 -3
-52 -7 -71 -10 -19 -2 -57 -9 -85 -14 -27 -5 -61 -12 -75 -14 -14 -2 -47 -10
-75 -16 -27 -6 -58 -13 -67 -15 -50 -10 -223 -61 -298 -86 -47 -16 -92 -31
-100 -33 -8 -3 -67 -25 -130 -51 -222 -89 -487 -230 -690 -367 -70 -48 -269
-195 -280 -207 -3 -3 -32 -28 -65 -56 -80 -66 -306 -289 -377 -373 -32 -37
-67 -78 -79 -92 -12 -14 -42 -52 -67 -85 -25 -33 -49 -62 -52 -65 -3 -3 -47
-66 -97 -140 -200 -299 -350 -607 -461 -950 -23 -69 -43 -138 -46 -153 -2 -14
-7 -31 -10 -36 -8 -12 -63 -274 -71 -336 -4 -27 -9 -52 -10 -55 -2 -3 -6 -37
-10 -75 -4 -39 -9 -79 -11 -90 -24 -115 -23 -682 1 -815 1 -8 6 -42 9 -75 34
-288 134 -664 253 -950 250 -599 654 -1129 1167 -1529 101 -78 377 -266 392
-266 4 0 15 -6 23 -14 28 -25 282 -152 419 -210 320 -137 699 -238 1012 -271
25 -3 59 -7 75 -10 146 -22 656 -22 773 0 10 1 44 6 77 9 33 4 85 11 115 16
30 5 70 12 88 15 18 3 65 12 105 21 39 8 80 17 89 19 158 34 419 120 619 206
937 399 1681 1180 2036 2134 44 117 116 345 127 402 3 15 13 57 21 93 24 104
58 311 70 420 16 149 19 464 19 2195 l1 1960 -1973 1 c-1084 0 -1973 0 -1975
-1z"/>
<path d="M16179 11876 c0 -12 -1 -878 -1 -1926 -1 -1703 2 -2094 17 -2180 2
-14 7 -50 10 -81 3 -31 7 -66 10 -77 2 -11 7 -42 11 -69 29 -202 90 -439 171
-668 118 -333 305 -683 516 -967 408 -548 971 -988 1587 -1238 30 -12 69 -28
85 -35 153 -67 537 -170 742 -201 21 -3 49 -7 63 -9 14 -3 50 -7 80 -10 30 -3
69 -8 86 -10 165 -23 633 -22 765 0 13 2 44 6 69 9 391 44 836 175 1190 351
218 108 477 267 615 377 6 5 26 21 46 36 201 154 443 391 614 603 72 89 99
125 163 216 275 395 492 891 588 1348 9 44 43 242 48 280 26 194 30 257 30
505 1 253 -5 355 -29 525 -3 19 -7 52 -10 73 -3 20 -8 48 -11 62 -3 14 -7 36
-9 50 -17 124 -101 427 -169 608 -81 215 -206 477 -300 627 -266 423 -518 709
-891 1014 -110 90 -345 247 -490 328 -96 54 -299 153 -400 195 -295 123 -563
196 -935 253 -24 3 -76 10 -185 22 -27 3 -956 6 -2062 8 l-2013 2 -1 -21z"/>
</g>
</svg>
